# xmcd
#
# Track frame offsets: 
#        150
#        23737
#        53882
#        86742
#        106382
#        124610
#        156002
#        178007
#        194840
#        210987
#        240255
#        258135
#
# Disc length: 3705 seconds
#
# Revision: 2
# Processed by: cddbd v1.5.2PL0 Copyright (c) Steve Scherf et al.
# Submitted via: ExactAudioCopyFreeDBPlugin 1.0
#
DISCID=970e770c
DTITLE=Omnibus - JAZZ PIANO Favoriets Collection Part 1
DYEAR=1994
DGENRE=Jazz
TTITLE0=Mal Waldron - ALL ALONE
TTITLE1=Thelonious Monk - ROUND MIDNIGHT
TTITLE2=Horace Silver - SONG FOR MY FATHER
TTITLE3=Junior Mance - WHISPER NOT
TTITLE4=Bud Powell - DOWN WITH IT
TTITLE5=Bill Evans - WALTZING FOR DEBBIE
TTITLE6=Kenny Drew - CARAVAN
TTITLE7=Bill Evans - DANNY BOY
TTITLE8=Duke Ellington - SOLITUDE
TTITLE9=Wynton Kelly - SOFTY AS IN A MORNING SUNRISE
TTITLE10=Oscar Peterson - THE GIRL FROM IPANEMA
TTITLE11=Bud Powell - CLEOPATRA'S DREAM
EXTD=YEAR: 1994
EXTT0=
EXTT1=
EXTT2=
EXTT3=
EXTT4=
EXTT5=
EXTT6=
EXTT7=
EXTT8=
EXTT9=
EXTT10=
EXTT11=
PLAYORDER=
